<?xml version="1.0" standalone="no"?>
<!DOCTYPE svg PUBLIC "-//W3C//DTD SVG 20010904//EN"
 "http://www.w3.org/TR/2001/REC-SVG-20010904/DTD/svg10.dtd">
<svg version="1.0" xmlns="http://www.w3.org/2000/svg"
 width="337.000000pt" height="337.000000pt" viewBox="0 0 337.000000 337.000000"
 preserveAspectRatio="xMidYMid meet">
<metadata>
Created by potrace 1.14, written by Peter Selinger 2001-2017
</metadata>
<g transform="translate(0.000000,337.000000) scale(0.100000,-0.100000)"
fill="#000000" stroke="none">
<path d="M2475 3292 c-34 -7 -67 -35 -80 -67 -7 -18 -11 -73 -10 -142 3 -172
23 -191 205 -189 117 2 140 8 175 46 16 18 19 38 21 137 4 192 -17 217 -185
218 -58 0 -115 -1 -126 -3z"/>
<path d="M1045 2915 c-5 -1 -34 -11 -64 -20 -109 -33 -216 -123 -270 -225 -58
-109 -59 -124 -57 -648 1 -262 5 -486 8 -497 4 -11 10 -33 14 -50 13 -50 73
-143 127 -196 57 -56 166 -113 237 -125 25 -4 250 -8 500 -8 414 -1 462 1 530
18 151 38 269 145 331 301 l24 60 2 480 c1 277 -2 501 -7 530 -30 156 -154
300 -308 359 -55 20 -72 21 -557 23 -275 1 -504 0 -510 -2z m766 -493 c45 -18
96 -70 114 -115 15 -35 17 -77 18 -264 0 -149 -4 -237 -13 -268 -15 -54 -80
-119 -135 -134 -23 -6 -134 -9 -274 -8 -257 3 -267 5 -323 64 -54 56 -59 84
-59 338 -1 211 1 237 19 278 23 51 75 97 128 112 48 14 490 12 525 -3z"/>
<path d="M2420 1044 c-25 -8 -54 -16 -65 -19 -11 -2 -56 -13 -100 -25 -44 -12
-208 -55 -365 -96 -309 -81 -415 -113 -500 -151 -324 -144 -559 -332 -773
-618 -25 -33 -42 -61 -38 -63 8 -3 208 49 771 198 140 37 354 93 475 125 267
70 311 85 397 141 155 103 251 266 273 467 7 65 5 66 -75 41z"/>
</g>
</svg>
